<svg width="28" height="28" viewBox="0 0 28 28" fill="none" xmlns="http://www.w3.org/2000/svg">
<circle cx="14" cy="14" r="14" fill="#FFF"/>
<path fill-rule="evenodd" clip-rule="evenodd" d="M14 0C21.732 0 28 6.26801 28 14C28 14.473 27.9765 14.9406 27.9307 15.4015L24.8695 15.4L22.0695 16.8H21V14.6986L21.7 14.7C22.0866 14.7 22.4 14.3866 22.4 14V9.8C22.4 9.4134 22.0866 9.1 21.7 9.1L20.825 9.0986L19.8651 5.26045C19.7093 4.63722 19.1493 4.2 18.5069 4.2H9.49309C8.85067 4.2 8.2907 4.63722 8.13489 5.26045L7.175 9.0986L6.3 9.1C5.9134 9.1 5.6 9.4134 5.6 9.8V14C5.6 14.3866 5.9134 14.7 6.3 14.7L7 14.6986V16.8L0.280329 16.8014C0.0965023 15.8962 0 14.9594 0 14C0 6.26801 6.26801 0 14 0ZM18.2 14.6986V16.8H9.8V14.6986H18.2ZM8.4 11.2C8.9799 11.2 9.45 11.6701 9.45 12.25C9.45 12.8299 8.9799 13.3 8.4 13.3C7.8201 13.3 7.35 12.8299 7.35 12.25C7.35 11.6701 7.8201 11.2 8.4 11.2ZM19.6 11.2C20.1799 11.2 20.65 11.6701 20.65 12.25C20.65 12.8299 20.1799 13.3 19.6 13.3C19.0201 13.3 18.55 12.8299 18.55 12.25C18.55 11.6701 19.0201 11.2 19.6 11.2ZM18.2 5.6L19.25 9.8H8.75L9.8 5.6H18.2Z" fill="#009FCF"/>
<path fill-rule="evenodd" clip-rule="evenodd" d="M27.3589 18.2003C25.5749 23.8802 20.2685 28.0002 13.9999 28.0002C8.2592 28.0002 3.32553 24.545 1.16504 19.6008L22.7304 19.6002L25.5304 18.2002L27.3589 18.2003Z" fill="#DC241B"/>
</svg>
