<svg width="38" height="38" viewBox="0 0 38 38" fill="none" xmlns="http://www.w3.org/2000/svg">
<path fill-rule="evenodd" clip-rule="evenodd" d="M18.6363 37.909C28.8787 37.909 37.1818 29.6059 37.1818 19.3636C37.1818 9.1212 28.8787 0.818115 18.6363 0.818115C8.39396 0.818115 0.0908813 9.1212 0.0908813 19.3636C0.0908813 29.6059 8.39396 37.909 18.6363 37.909ZM16.4798 21.7887C15.8117 21.1942 15.3909 20.3279 15.3909 19.3632C15.3909 19.358 15.3909 19.3527 15.3909 19.3472C15.3916 19.215 15.4001 19.0847 15.4161 18.9567C15.5424 17.6462 16.1448 14.1052 17.2683 7.98485C17.5472 6.46514 19.7254 6.46514 20.0044 7.98485C20.7117 11.838 21.2124 14.6688 21.5179 16.5644C23.1002 16.8759 25.311 17.3535 28.2142 18.0062C29.6619 18.3317 29.6619 20.3948 28.2142 20.7203C23.3068 21.8236 20.3777 22.4265 19.1184 22.5731C18.9641 22.5961 18.8064 22.6082 18.6459 22.6087C18.6427 22.6087 18.6395 22.6087 18.6363 22.6087C18.6363 22.6087 18.6363 22.6087 18.6363 22.6087C17.8085 22.6087 17.0531 22.2988 16.4798 21.7887Z" fill="#717172"/>
</svg>
