<svg width="28" height="28" viewBox="0 0 28 28" fill="none" xmlns="http://www.w3.org/2000/svg">
<circle cx="14" cy="14" r="14" fill="#FFF"/>
<path fill-rule="evenodd" clip-rule="evenodd" d="M14 0C21.732 0 28 6.26801 28 14C28 15.4637 27.7754 16.875 27.3587 18.2012L25.5305 18.2L22.7305 16.8L20.3 16.7986L20.2997 11.2704L21.5037 12.2755L23.2963 10.1245L19.5997 7.04381L19.6 3.5H16.8L16.7997 4.71141L14 2.37761L4.70374 10.1245L6.49626 12.2755L7.69974 11.2704L7.7 16.8L0.280329 16.8014C0.0965023 15.8962 0 14.9594 0 14C0 6.26801 6.26801 0 14 0ZM16.1 11.2V16.7986H11.9V11.2H16.1Z" fill="#A1ABAB"/>
<path fill-rule="evenodd" clip-rule="evenodd" d="M1.16504 19.5996L22.0699 19.6002L24.8699 21.0002L26.1266 21.0015C23.7057 25.1854 19.1818 28.0002 14.0004 28.0002C8.25925 28.0002 3.32527 24.5444 1.16504 19.5996Z" fill="#DC291E"/>
</svg>
