<svg width="16" height="16" viewBox="0 0 16 16" fill="none" xmlns="http://www.w3.org/2000/svg">
<path fill-rule="evenodd" clip-rule="evenodd" d="M8 7.15147L12.9757 2.17574C13.2101 1.94142 13.59 1.94142 13.8243 2.17574C14.0586 2.41005 14.0586 2.78995 13.8243 3.02426L8.84853 8L13.8243 12.9757C14.0586 13.2101 14.0586 13.59 13.8243 13.8243C13.59 14.0586 13.2101 14.0586 12.9757 13.8243L8 8.84853L3.02426 13.8243C2.78995 14.0586 2.41005 14.0586 2.17574 13.8243C1.94142 13.59 1.94142 13.2101 2.17574 12.9757L7.15147 8L2.17574 3.02426C1.94142 2.78995 1.94142 2.41005 2.17574 2.17574C2.41005 1.94142 2.78995 1.94142 3.02426 2.17574L8 7.15147Z" fill="#414142"/>
</svg>
