<?xml version="1.0" encoding="UTF-8"?>
<svg width="994px" height="281px" viewBox="0 0 994 281" version="1.1" xmlns="http://www.w3.org/2000/svg" xmlns:xlink="http://www.w3.org/1999/xlink">
    <!-- Generator: Sketch 50.2 (55047) - http://www.bohemiancoding.com/sketch -->
    <title>Matthey_logo</title>
    <desc>Created with Sketch.</desc>
    <defs>
        <polygon id="path-1" points="0.06 0.196 212.304 0.196 212.304 49.94 0.06 49.94"></polygon>
        <polygon id="path-3" points="0.06 0.829 314.799 0.829 314.799 114.755 0.06 114.755"></polygon>
    </defs>
    <g id="Matthey_logo" stroke="none" stroke-width="1" fill="none" fill-rule="evenodd">
        <polyline id="Fill-1" fill="#343532" points="139.413 231.275 102.3 231.275 99.734 241.529 112.16 241.529 104.958 270.781 118.211 270.781 125.344 241.529 136.932 241.529 139.413 231.275"></polyline>
        <g id="Group-7" transform="translate(0.000000, 231.000000)">
            <mask id="mask-2" fill="white">
                <use xlink:href="#path-1"></use>
            </mask>
            <g id="Clip-3"></g>
            <polyline id="Fill-2" fill="#343532" mask="url(#mask-2)" points="180.718 0.272 143.299 0.272 140.816 10.529 160.228 10.529 135.967 30.237 133.631 39.781 171.05 39.781 173.306 30.56 152.425 30.56 178.321 10.066 180.718 0.272"></polyline>
            <polyline id="Fill-4" fill="#343532" mask="url(#mask-2)" points="36.925 0.275 32.119 21.837 22.389 0.275 9.667 0.275 0 39.781 12.912 39.781 17.701 18.273 27.442 39.781 40.39 39.781 50.167 0.275 36.925 0.275"></polyline>
            <path d="M78.41,29.222 L62.205,29.222 L67.273,9.661 L83.059,9.661 L78.41,29.222 Z M88.868,0.196 L64.277,0.196 C62.11,0.196 56.003,0.728 54.331,6.743 C52.675,12.762 49.911,25.94 48.666,30.629 C47.422,35.318 48.912,39.747 56.053,39.747 L80.474,39.747 C87.048,39.747 90.033,37.976 91.614,31.777 C92.898,26.739 94,22.136 97.181,8.6 C99.089,0.466 93.692,0.196 88.868,0.196 Z" id="Fill-5" fill="#343532" mask="url(#mask-2)"></path>
            <path d="M204.031,21.144 C203.48,20.899 202.411,20.704 201.382,20.704 C196.908,20.704 193.435,25.447 193.163,29.996 C193.02,32.393 194.046,34.154 196.309,34.154 C198.727,34.154 201.348,31.611 202.362,27.551 L204.031,21.144 Z M185.436,43.104 C186.777,43.886 189.832,44.425 191.94,44.425 C195.645,44.425 198.516,42.86 199.83,38.066 L200.362,36.061 L200.259,36.061 C198.162,38.458 195.831,39.583 192.847,39.583 C187.858,39.583 185.054,35.718 185.28,31.072 C185.754,23.149 192.136,15.323 203.092,15.323 C206.642,15.323 209.745,15.91 212.304,16.987 L207.319,36.697 C206.182,41.098 204.56,45.011 201.387,47.31 C198.538,49.364 194.849,50 191.505,50 C188.161,50 185.059,49.413 183.417,48.484 L185.436,43.104 Z" id="Fill-6" fill="#343532" mask="url(#mask-2)"></path>
        </g>
        <path d="M212.022,270.778 L215.701,256.546 C216.637,252.926 217.186,248.916 217.565,246.862 L223.995,246.862 C223.744,248.476 223.493,250.09 223.24,251.753 L223.394,251.753 C225.333,248.573 228.296,246.323 231.743,246.323 C232.206,246.323 232.668,246.323 233.128,246.372 L231.28,253.22 C230.922,253.171 230.511,253.171 230.099,253.171 C225.367,253.171 222.916,257.181 221.709,261.877 L219.428,270.778 L212.022,270.778" id="Fill-8" fill="#343532"></path>
        <path d="M239.49,261.29 C239.324,264.078 240.653,265.936 243.225,265.936 C247.289,265.936 249.888,260.311 250.133,256.203 C250.265,254.002 249.428,251.655 246.445,251.655 C242.175,251.655 239.662,257.572 239.49,261.29 Z M257.8,256.155 C257.277,264.909 250.619,271.316 241.875,271.316 C235.497,271.316 231.464,267.355 231.817,261.436 C232.314,253.122 238.79,246.323 247.74,246.323 C254.478,246.323 258.125,250.725 257.8,256.155 Z" id="Fill-9" fill="#343532"></path>
        <path d="M287.212,246.862 L283.007,263.002 C282.208,266.034 281.693,268.626 281.206,270.778 L274.672,270.778 L275.369,266.865 L275.267,266.865 C272.507,269.996 269.342,271.316 266.308,271.316 C262.295,271.316 260.007,269.164 260.279,264.616 C260.358,263.295 260.597,261.877 261.056,260.214 L264.477,246.862 L271.883,246.862 L268.597,259.676 C268.328,260.752 268.104,261.926 268.051,262.806 C267.958,264.371 268.501,265.594 270.405,265.594 C272.925,265.594 275.669,262.708 276.933,257.915 L279.805,246.862 L287.212,246.862" id="Fill-10" fill="#343532"></path>
        <path d="M295.501,264.811 C296.281,265.545 297.386,265.985 298.827,265.985 C302.787,265.985 306.195,260.605 306.476,255.909 C306.59,254.002 305.886,251.997 303.468,251.997 C300.691,251.997 297.94,254.981 296.734,259.676 L295.501,264.811 Z M284.022,280.462 L290.313,256.106 C291.047,253.269 291.901,249.307 292.356,246.862 L298.992,246.862 L298.321,250.334 L298.424,250.334 C300.637,247.742 303.705,246.323 306.74,246.323 C312.192,246.323 314.567,250.481 314.274,255.372 C313.778,263.686 307.509,271.316 298.765,271.316 C296.708,271.316 294.988,270.827 294.143,270.338 L294.04,270.338 L291.378,280.462 L284.022,280.462 Z" id="Fill-11" fill="#343532"></path>
        <path d="M368.342,266.224 C369.631,265.228 370.277,263.844 370.277,262.075 L370.277,257.334 C370.277,257.184 370.188,257.108 370.015,257.108 L365.423,257.108 C363.324,257.108 361.661,257.588 360.437,258.547 C359.212,259.507 358.601,260.928 358.601,262.809 C358.601,264.466 359.07,265.698 360.011,266.507 C360.951,267.316 362.186,267.72 363.717,267.72 C365.51,267.72 367.051,267.222 368.342,266.224 Z M372.212,244.322 C374.026,246.035 374.935,248.321 374.935,251.18 L374.935,270.204 C374.935,270.581 374.715,270.768 374.278,270.768 L370.933,270.768 C370.495,270.768 370.277,270.581 370.277,270.204 L370.277,268.567 L370.178,268.426 L369.949,268.51 C368.331,270.317 365.925,271.22 362.733,271.22 C360.328,271.22 358.24,270.628 356.469,269.442 C354.698,268.257 353.812,266.159 353.812,263.148 C353.812,259.95 354.883,257.607 357.026,256.12 C359.168,254.634 361.989,253.89 365.488,253.89 L370.015,253.89 C370.188,253.89 370.277,253.815 370.277,253.664 L370.277,251.463 C370.277,249.582 369.785,248.076 368.801,246.947 C367.817,245.818 366.472,245.254 364.767,245.254 C363.455,245.254 362.317,245.63 361.355,246.382 C360.393,247.135 359.847,248.095 359.716,249.261 C359.671,249.638 359.431,249.826 358.994,249.826 L355.386,249.769 C355.167,249.769 355.003,249.713 354.895,249.6 C354.785,249.487 354.752,249.356 354.796,249.205 C355.014,246.985 356.064,245.188 357.944,243.814 C359.824,242.441 362.143,241.754 364.898,241.754 C367.958,241.754 370.396,242.61 372.212,244.322 Z" id="Fill-12" fill="#343532"></path>
        <path d="M399.041,266.168 C400.068,265.134 400.583,263.769 400.583,262.075 L400.583,250.899 C400.583,249.205 400.068,247.842 399.041,246.805 C398.013,245.771 396.712,245.254 395.138,245.254 C393.433,245.254 392.055,245.771 391.005,246.805 C389.956,247.842 389.453,249.205 389.497,250.899 L389.497,262.075 C389.453,263.732 389.956,265.086 391.005,266.139 C392.055,267.194 393.433,267.72 395.138,267.72 C396.712,267.72 398.013,267.203 399.041,266.168 Z M401.239,231.254 L404.584,231.254 C405.021,231.254 405.24,231.443 405.24,231.819 L405.24,270.204 C405.24,270.581 405.021,270.768 404.584,270.768 L401.239,270.768 C400.801,270.768 400.583,270.581 400.583,270.204 L400.583,268.567 L400.484,268.398 L400.255,268.454 C399.511,269.357 398.582,270.045 397.467,270.514 C396.352,270.985 395.116,271.22 393.761,271.22 C391.18,271.22 389.092,270.421 387.496,268.821 C385.899,267.222 385.036,265.143 384.905,262.583 C384.861,261.192 384.839,259.103 384.839,256.318 C384.839,253.646 384.861,251.613 384.905,250.221 C384.992,247.7 385.833,245.658 387.431,244.096 C389.026,242.535 391.137,241.754 393.761,241.754 C396.603,241.754 398.768,242.657 400.255,244.463 L400.484,244.52 L400.583,244.35 L400.583,231.819 C400.583,231.443 400.801,231.254 401.239,231.254 Z" id="Fill-13" fill="#343532"></path>
        <path d="M422.295,270.26 L414.161,242.826 L414.095,242.6 C414.095,242.337 414.292,242.205 414.686,242.205 L418.49,242.205 C418.927,242.205 419.167,242.374 419.211,242.713 L424.853,264.559 C424.896,264.672 424.94,264.728 424.984,264.728 C425.027,264.728 425.072,264.672 425.116,264.559 L430.691,242.713 C430.779,242.374 431.02,242.205 431.413,242.205 L435.218,242.262 C435.436,242.262 435.6,242.318 435.709,242.431 C435.818,242.544 435.83,242.695 435.742,242.883 L427.674,270.26 C427.63,270.599 427.389,270.768 426.952,270.768 L423.017,270.768 C422.623,270.768 422.382,270.599 422.295,270.26" id="Fill-14" fill="#343532"></path>
        <path d="M457.75,266.224 C459.04,265.228 459.686,263.844 459.686,262.075 L459.686,257.334 C459.686,257.184 459.597,257.108 459.423,257.108 L454.831,257.108 C452.732,257.108 451.069,257.588 449.846,258.547 C448.621,259.507 448.009,260.928 448.009,262.809 C448.009,264.466 448.478,265.698 449.419,266.507 C450.359,267.316 451.594,267.72 453.125,267.72 C454.918,267.72 456.459,267.222 457.75,266.224 Z M461.621,244.322 C463.435,246.035 464.343,248.321 464.343,251.18 L464.343,270.204 C464.343,270.581 464.124,270.768 463.687,270.768 L460.341,270.768 C459.904,270.768 459.686,270.581 459.686,270.204 L459.686,268.567 L459.587,268.426 L459.357,268.51 C457.739,270.317 455.333,271.22 452.142,271.22 C449.736,271.22 447.648,270.628 445.877,269.442 C444.106,268.257 443.22,266.159 443.22,263.148 C443.22,259.95 444.292,257.607 446.435,256.12 C448.577,254.634 451.397,253.89 454.896,253.89 L459.423,253.89 C459.597,253.89 459.686,253.815 459.686,253.664 L459.686,251.463 C459.686,249.582 459.193,248.076 458.209,246.947 C457.225,245.818 455.88,245.254 454.175,245.254 C452.863,245.254 451.726,245.63 450.764,246.382 C449.802,247.135 449.255,248.095 449.125,249.261 C449.08,249.638 448.839,249.826 448.402,249.826 L444.794,249.769 C444.575,249.769 444.411,249.713 444.303,249.6 C444.193,249.487 444.16,249.356 444.204,249.205 C444.422,246.985 445.472,245.188 447.353,243.814 C449.233,242.441 451.551,241.754 454.306,241.754 C457.367,241.754 459.805,242.61 461.621,244.322 Z" id="Fill-15" fill="#343532"></path>
        <path d="M492.91,244.181 C494.375,245.761 495.108,247.963 495.108,250.785 L495.108,270.204 C495.108,270.581 494.888,270.768 494.452,270.768 L491.106,270.768 C490.669,270.768 490.451,270.581 490.451,270.204 L490.451,251.124 C490.451,249.28 489.991,247.85 489.073,246.834 C488.155,245.818 486.864,245.31 485.203,245.31 C483.453,245.31 482.075,245.856 481.07,246.947 C480.063,248.039 479.562,249.525 479.562,251.406 L479.562,270.204 C479.562,270.581 479.342,270.768 478.905,270.768 L475.56,270.768 C475.122,270.768 474.904,270.581 474.904,270.204 L474.904,242.77 C474.904,242.394 475.122,242.205 475.56,242.205 L478.905,242.205 C479.342,242.205 479.562,242.394 479.562,242.77 L479.562,244.633 L479.692,244.774 L479.889,244.689 C481.506,242.77 483.781,241.81 486.711,241.81 C489.378,241.81 491.445,242.6 492.91,244.181" id="Fill-16" fill="#343532"></path>
        <path d="M508.063,268.849 C506.204,267.269 505.275,265.18 505.275,262.583 L505.275,250.39 C505.275,247.831 506.215,245.753 508.096,244.153 C509.976,242.554 512.447,241.754 515.509,241.754 C517.564,241.754 519.379,242.112 520.954,242.826 C522.528,243.542 523.741,244.491 524.594,245.677 C525.447,246.863 525.873,248.17 525.873,249.6 L525.873,250.164 C525.873,250.541 525.654,250.729 525.217,250.729 L521.872,250.842 C521.696,250.842 521.544,250.795 521.413,250.701 C521.281,250.608 521.216,250.485 521.216,250.334 L521.216,249.883 C521.216,248.64 520.68,247.559 519.609,246.636 C518.537,245.715 517.17,245.254 515.509,245.254 C513.846,245.254 512.501,245.753 511.475,246.749 C510.446,247.747 509.933,249.055 509.933,250.673 L509.933,262.301 C509.933,263.92 510.446,265.228 511.475,266.224 C512.501,267.222 513.846,267.72 515.509,267.72 C517.17,267.72 518.537,267.26 519.609,266.337 C520.68,265.415 521.216,264.333 521.216,263.092 L521.216,262.696 C521.216,262.321 521.434,262.132 521.872,262.132 L525.217,262.188 C525.654,262.188 525.873,262.377 525.873,262.753 L525.873,263.373 C525.873,265.632 524.922,267.504 523.02,268.99 C521.117,270.477 518.613,271.22 515.509,271.22 C512.403,271.22 509.922,270.43 508.063,268.849" id="Fill-17" fill="#343532"></path>
        <path d="M541.124,246.749 C540.096,247.747 539.583,249.055 539.583,250.673 L539.583,254.455 C539.583,254.605 539.669,254.68 539.845,254.68 L550.603,254.68 C550.777,254.68 550.865,254.605 550.865,254.455 L550.865,250.673 C550.865,249.055 550.34,247.747 549.291,246.749 C548.241,245.753 546.864,245.254 545.158,245.254 C543.496,245.254 542.151,245.753 541.124,246.749 Z M554.801,258.011 L539.845,258.011 C539.669,258.011 539.583,258.087 539.583,258.237 L539.583,262.358 C539.583,263.938 540.096,265.228 541.124,266.224 C542.151,267.222 543.496,267.72 545.158,267.72 C546.558,267.72 547.75,267.353 548.733,266.62 C549.717,265.885 550.362,264.936 550.668,263.769 C550.8,263.43 551.04,263.261 551.39,263.261 L554.669,263.373 C554.844,263.373 554.998,263.43 555.129,263.543 C555.26,263.656 555.304,263.806 555.26,263.995 C554.91,266.216 553.85,267.974 552.079,269.273 C550.308,270.571 548,271.22 545.158,271.22 C542.052,271.22 539.571,270.43 537.713,268.849 C535.854,267.269 534.925,265.18 534.925,262.583 L534.925,250.39 C534.925,247.831 535.854,245.753 537.713,244.153 C539.571,242.554 542.052,241.754 545.158,241.754 C548.307,241.754 550.81,242.554 552.669,244.153 C554.527,245.753 555.457,247.831 555.457,250.39 L555.457,257.447 C555.457,257.823 555.238,258.011 554.801,258.011 Z" id="Fill-18" fill="#343532"></path>
        <path d="M579.17,266.168 C580.197,265.134 580.712,263.769 580.712,262.075 L580.712,250.899 C580.712,249.205 580.197,247.842 579.17,246.805 C578.143,245.771 576.842,245.254 575.268,245.254 C573.562,245.254 572.184,245.771 571.135,246.805 C570.085,247.842 569.582,249.205 569.626,250.899 L569.626,262.075 C569.582,263.732 570.085,265.086 571.135,266.139 C572.184,267.194 573.562,267.72 575.268,267.72 C576.842,267.72 578.143,267.203 579.17,266.168 Z M581.368,231.254 L584.714,231.254 C585.15,231.254 585.37,231.443 585.37,231.819 L585.37,270.204 C585.37,270.581 585.15,270.768 584.714,270.768 L581.368,270.768 C580.93,270.768 580.712,270.581 580.712,270.204 L580.712,268.567 L580.614,268.398 L580.384,268.454 C579.64,269.357 578.711,270.045 577.596,270.514 C576.481,270.985 575.245,271.22 573.89,271.22 C571.309,271.22 569.221,270.421 567.625,268.821 C566.029,267.222 565.166,265.143 565.035,262.583 C564.99,261.192 564.969,259.103 564.969,256.318 C564.969,253.646 564.99,251.613 565.035,250.221 C565.122,247.7 565.963,245.658 567.56,244.096 C569.156,242.535 571.266,241.754 573.89,241.754 C576.732,241.754 578.897,242.657 580.384,244.463 L580.614,244.52 L580.712,244.35 L580.712,231.819 C580.712,231.443 580.93,231.254 581.368,231.254 Z" id="Fill-19" fill="#343532"></path>
        <path d="M645.719,244.294 C647.162,245.95 647.883,248.245 647.883,251.18 L647.883,270.204 C647.883,270.581 647.664,270.768 647.227,270.768 L643.948,270.768 C643.51,270.768 643.292,270.581 643.292,270.204 L643.292,251.519 C643.292,249.6 642.821,248.085 641.881,246.975 C640.94,245.865 639.705,245.31 638.175,245.31 C636.512,245.31 635.2,245.856 634.239,246.947 C633.277,248.039 632.796,249.525 632.796,251.406 L632.796,270.204 C632.796,270.581 632.577,270.768 632.14,270.768 L628.794,270.768 C628.356,270.768 628.138,270.581 628.138,270.204 L628.138,251.519 C628.138,249.6 627.668,248.085 626.728,246.975 C625.787,245.865 624.574,245.31 623.087,245.31 C621.425,245.31 620.103,245.856 619.119,246.947 C618.135,248.039 617.643,249.525 617.643,251.406 L617.643,270.204 C617.643,270.581 617.423,270.768 616.987,270.768 L613.707,270.768 C613.27,270.768 613.051,270.581 613.051,270.204 L613.051,242.77 C613.051,242.394 613.27,242.205 613.707,242.205 L616.987,242.205 C617.423,242.205 617.643,242.394 617.643,242.77 L617.643,244.52 L617.741,244.661 L617.971,244.576 C618.801,243.636 619.785,242.939 620.922,242.488 C622.059,242.036 623.262,241.81 624.531,241.81 C626.192,241.81 627.635,242.158 628.86,242.855 C630.083,243.551 631.024,244.539 631.68,245.818 L631.877,245.931 C631.964,245.931 632.03,245.875 632.074,245.761 C632.861,244.406 633.933,243.41 635.289,242.77 C636.644,242.131 638.086,241.81 639.618,241.81 C642.242,241.81 644.275,242.638 645.719,244.294" id="Fill-20" fill="#343532"></path>
        <path d="M664.25,246.749 C663.221,247.747 662.708,249.055 662.708,250.673 L662.708,254.455 C662.708,254.605 662.795,254.68 662.97,254.68 L673.729,254.68 C673.902,254.68 673.991,254.605 673.991,254.455 L673.991,250.673 C673.991,249.055 673.466,247.747 672.417,246.749 C671.367,245.753 669.989,245.254 668.284,245.254 C666.621,245.254 665.276,245.753 664.25,246.749 Z M677.926,258.011 L662.97,258.011 C662.795,258.011 662.708,258.087 662.708,258.237 L662.708,262.358 C662.708,263.938 663.221,265.228 664.25,266.224 C665.276,267.222 666.621,267.72 668.284,267.72 C669.683,267.72 670.875,267.353 671.859,266.62 C672.843,265.885 673.487,264.936 673.794,263.769 C673.925,263.43 674.165,263.261 674.516,263.261 L677.795,263.373 C677.969,263.373 678.123,263.43 678.254,263.543 C678.385,263.656 678.429,263.806 678.385,263.995 C678.035,266.216 676.975,267.974 675.204,269.273 C673.433,270.571 671.126,271.22 668.284,271.22 C665.178,271.22 662.697,270.43 660.838,268.849 C658.979,267.269 658.05,265.18 658.05,262.583 L658.05,250.39 C658.05,247.831 658.979,245.753 660.838,244.153 C662.697,242.554 665.178,241.754 668.284,241.754 C671.433,241.754 673.936,242.554 675.794,244.153 C677.653,245.753 678.582,247.831 678.582,250.39 L678.582,257.447 C678.582,257.823 678.363,258.011 677.926,258.011 Z" id="Fill-21" fill="#343532"></path>
        <path d="M699.771,245.197 L694.785,245.197 C694.61,245.197 694.522,245.273 694.522,245.423 L694.522,262.696 C694.522,264.427 694.872,265.623 695.572,266.281 C696.271,266.94 697.343,267.25 698.786,267.213 L699.442,267.213 C699.879,267.213 700.099,267.401 700.099,267.777 L700.099,270.204 C700.099,270.581 699.879,270.768 699.442,270.768 L697.802,270.768 C695.222,270.768 693.265,270.289 691.932,269.329 C690.597,268.369 689.931,266.554 689.931,263.882 L689.931,245.423 C689.931,245.273 689.842,245.197 689.668,245.197 L687.11,245.197 C686.672,245.197 686.454,245.009 686.454,244.633 L686.454,242.77 C686.454,242.394 686.672,242.205 687.11,242.205 L689.668,242.205 C689.842,242.205 689.931,242.131 689.931,241.979 L689.931,235.657 C689.931,235.281 690.149,235.093 690.587,235.093 L693.867,235.093 C694.303,235.093 694.522,235.281 694.522,235.657 L694.522,241.979 C694.522,242.131 694.61,242.205 694.785,242.205 L699.771,242.205 C700.207,242.205 700.427,242.394 700.427,242.77 L700.427,244.633 C700.427,245.009 700.207,245.197 699.771,245.197" id="Fill-22" fill="#343532"></path>
        <path d="M722.631,266.224 C723.92,265.228 724.566,263.844 724.566,262.075 L724.566,257.334 C724.566,257.184 724.478,257.108 724.304,257.108 L719.712,257.108 C717.613,257.108 715.95,257.588 714.727,258.547 C713.502,259.507 712.89,260.928 712.89,262.809 C712.89,264.466 713.359,265.698 714.3,266.507 C715.24,267.316 716.475,267.72 718.006,267.72 C719.799,267.72 721.341,267.222 722.631,266.224 Z M726.501,244.322 C728.315,246.035 729.224,248.321 729.224,251.18 L729.224,270.204 C729.224,270.581 729.005,270.768 728.567,270.768 L725.222,270.768 C724.785,270.768 724.566,270.581 724.566,270.204 L724.566,268.567 L724.468,268.426 L724.238,268.51 C722.62,270.317 720.214,271.22 717.022,271.22 C714.617,271.22 712.529,270.628 710.758,269.442 C708.987,268.257 708.101,266.159 708.101,263.148 C708.101,259.95 709.172,257.607 711.316,256.12 C713.458,254.634 716.278,253.89 719.778,253.89 L724.304,253.89 C724.478,253.89 724.566,253.815 724.566,253.664 L724.566,251.463 C724.566,249.582 724.074,248.076 723.09,246.947 C722.106,245.818 720.762,245.254 719.057,245.254 C717.744,245.254 716.606,245.63 715.645,246.382 C714.683,247.135 714.136,248.095 714.005,249.261 C713.961,249.638 713.72,249.826 713.284,249.826 L709.676,249.769 C709.457,249.769 709.292,249.713 709.184,249.6 C709.074,249.487 709.041,249.356 709.085,249.205 C709.304,246.985 710.354,245.188 712.234,243.814 C714.114,242.441 716.432,241.754 719.188,241.754 C722.248,241.754 724.686,242.61 726.501,244.322 Z" id="Fill-23" fill="#343532"></path>
        <path d="M739.391,270.204 L739.391,231.819 C739.391,231.443 739.609,231.254 740.047,231.254 L743.392,231.254 C743.829,231.254 744.048,231.443 744.048,231.819 L744.048,270.204 C744.048,270.581 743.829,270.768 743.392,270.768 L740.047,270.768 C739.609,270.768 739.391,270.581 739.391,270.204" id="Fill-24" fill="#343532"></path>
        <path d="M772.747,269.047 C770.932,267.711 770.025,265.933 770.025,263.712 L770.025,263.317 C770.025,262.942 770.243,262.753 770.681,262.753 L773.829,262.753 C774.266,262.753 774.485,262.904 774.485,263.204 L774.485,263.656 C774.485,264.861 774.999,265.877 776.027,266.704 C777.054,267.532 778.399,267.946 780.061,267.946 C781.636,267.946 782.903,267.532 783.866,266.704 C784.827,265.877 785.309,264.822 785.309,263.543 C785.309,262.565 785.002,261.746 784.391,261.088 C783.778,260.429 783.067,259.912 782.259,259.535 C781.449,259.159 780.235,258.67 778.618,258.068 C776.913,257.466 775.502,256.873 774.387,256.289 C773.272,255.706 772.31,254.878 771.5,253.805 C770.691,252.733 770.287,251.369 770.287,249.713 C770.287,247.305 771.15,245.404 772.878,244.011 C774.605,242.62 776.934,241.923 779.864,241.923 C782.838,241.923 785.199,242.638 786.949,244.068 C788.698,245.499 789.573,247.398 789.573,249.769 L789.573,249.939 C789.573,250.316 789.354,250.503 788.917,250.503 L785.899,250.503 C785.461,250.503 785.243,250.353 785.243,250.052 L785.243,249.6 C785.243,248.321 784.751,247.267 783.768,246.439 C782.783,245.612 781.504,245.197 779.93,245.197 C778.356,245.197 777.098,245.62 776.158,246.467 C775.217,247.314 774.748,248.358 774.748,249.6 C774.748,250.503 775.032,251.265 775.601,251.886 C776.168,252.507 776.869,253.015 777.7,253.41 C778.53,253.805 779.689,254.285 781.176,254.85 C782.969,255.527 784.445,256.168 785.604,256.769 C786.763,257.371 787.779,258.218 788.655,259.309 C789.529,260.401 789.966,261.756 789.966,263.373 C789.966,265.707 789.07,267.571 787.277,268.962 C785.483,270.355 783.056,271.051 779.996,271.051 C776.979,271.051 774.561,270.383 772.747,269.047" id="Fill-25" fill="#343532"></path>
        <path d="M812.827,266.224 C813.897,265.228 814.434,263.938 814.434,262.358 L814.434,250.673 C814.434,249.055 813.897,247.747 812.827,246.749 C811.754,245.753 810.388,245.254 808.727,245.254 C807.064,245.254 805.709,245.753 804.66,246.749 C803.61,247.747 803.085,249.055 803.085,250.673 L803.085,262.358 C803.085,263.938 803.61,265.228 804.66,266.224 C805.709,267.222 807.064,267.72 808.727,267.72 C810.388,267.72 811.754,267.222 812.827,266.224 Z M801.216,268.849 C799.357,267.269 798.428,265.18 798.428,262.583 L798.428,250.39 C798.428,247.831 799.368,245.753 801.249,244.153 C803.128,242.554 805.621,241.754 808.727,241.754 C811.832,241.754 814.335,242.554 816.238,244.153 C818.14,245.753 819.091,247.831 819.091,250.39 L819.091,262.583 C819.091,265.18 818.15,267.269 816.271,268.849 C814.39,270.43 811.875,271.22 808.727,271.22 C805.578,271.22 803.074,270.43 801.216,268.849 Z" id="Fill-26" fill="#343532"></path>
        <path d="M829.193,270.204 L829.193,231.819 C829.193,231.443 829.411,231.254 829.849,231.254 L833.194,231.254 C833.63,231.254 833.85,231.443 833.85,231.819 L833.85,270.204 C833.85,270.581 833.63,270.768 833.194,270.768 L829.849,270.768 C829.411,270.768 829.193,270.581 829.193,270.204" id="Fill-27" fill="#343532"></path>
        <path d="M860.548,242.205 L863.894,242.205 C864.331,242.205 864.55,242.394 864.55,242.77 L864.55,270.204 C864.55,270.581 864.331,270.768 863.894,270.768 L860.548,270.768 C860.111,270.768 859.893,270.581 859.893,270.204 L859.893,268.285 C859.893,268.172 859.859,268.115 859.794,268.115 L859.564,268.228 C858.208,270.185 856.022,271.163 853.004,271.163 C850.381,271.163 848.292,270.477 846.74,269.103 C845.188,267.73 844.412,265.651 844.412,262.865 L844.412,242.77 C844.412,242.394 844.63,242.205 845.067,242.205 L848.413,242.205 C848.85,242.205 849.069,242.394 849.069,242.77 L849.069,261.962 C849.069,263.844 849.517,265.265 850.414,266.224 C851.309,267.184 852.611,267.664 854.317,267.664 C856.065,267.664 857.433,267.119 858.417,266.027 C859.4,264.936 859.893,263.449 859.893,261.567 L859.893,242.77 C859.893,242.394 860.111,242.205 860.548,242.205" id="Fill-28" fill="#343532"></path>
        <path d="M886.853,245.197 L881.867,245.197 C881.692,245.197 881.604,245.273 881.604,245.423 L881.604,262.696 C881.604,264.427 881.954,265.623 882.654,266.281 C883.354,266.94 884.426,267.25 885.869,267.213 L886.525,267.213 C886.961,267.213 887.181,267.401 887.181,267.777 L887.181,270.204 C887.181,270.581 886.961,270.768 886.525,270.768 L884.885,270.768 C882.304,270.768 880.347,270.289 879.014,269.329 C877.679,268.369 877.013,266.554 877.013,263.882 L877.013,245.423 C877.013,245.273 876.925,245.197 876.75,245.197 L874.192,245.197 C873.755,245.197 873.537,245.009 873.537,244.633 L873.537,242.77 C873.537,242.394 873.755,242.205 874.192,242.205 L876.75,242.205 C876.925,242.205 877.013,242.131 877.013,241.979 L877.013,235.657 C877.013,235.281 877.231,235.093 877.669,235.093 L880.949,235.093 C881.385,235.093 881.604,235.281 881.604,235.657 L881.604,241.979 C881.604,242.131 881.692,242.205 881.867,242.205 L886.853,242.205 C887.289,242.205 887.509,242.394 887.509,242.77 L887.509,244.633 C887.509,245.009 887.289,245.197 886.853,245.197" id="Fill-29" fill="#343532"></path>
        <path d="M896.955,270.204 L896.955,242.77 C896.955,242.394 897.173,242.205 897.611,242.205 L900.956,242.205 C901.393,242.205 901.612,242.394 901.612,242.77 L901.612,270.204 C901.612,270.581 901.393,270.768 900.956,270.768 L897.611,270.768 C897.173,270.768 896.955,270.581 896.955,270.204 Z M896.955,236.278 C896.342,235.714 896.037,234.999 896.037,234.133 C896.037,233.305 896.342,232.618 896.955,232.073 C897.566,231.528 898.354,231.254 899.316,231.254 C900.234,231.254 900.989,231.528 901.579,232.073 C902.17,232.618 902.465,233.305 902.465,234.133 C902.465,234.999 902.17,235.714 901.579,236.278 C900.989,236.843 900.234,237.125 899.316,237.125 C898.354,237.125 897.566,236.843 896.955,236.278 Z" id="Fill-30" fill="#343532"></path>
        <path d="M926.834,266.224 C927.905,265.228 928.441,263.938 928.441,262.358 L928.441,250.673 C928.441,249.055 927.905,247.747 926.834,246.749 C925.762,245.753 924.396,245.254 922.735,245.254 C921.072,245.254 919.717,245.753 918.667,246.749 C917.618,247.747 917.093,249.055 917.093,250.673 L917.093,262.358 C917.093,263.938 917.618,265.228 918.667,266.224 C919.717,267.222 921.072,267.72 922.735,267.72 C924.396,267.72 925.762,267.222 926.834,266.224 Z M915.224,268.849 C913.365,267.269 912.436,265.18 912.436,262.583 L912.436,250.39 C912.436,247.831 913.376,245.753 915.256,244.153 C917.136,242.554 919.629,241.754 922.735,241.754 C925.839,241.754 928.343,242.554 930.245,244.153 C932.148,245.753 933.099,247.831 933.099,250.39 L933.099,262.583 C933.099,265.18 932.158,267.269 930.278,268.849 C928.397,270.43 925.883,271.22 922.735,271.22 C919.586,271.22 917.082,270.43 915.224,268.849 Z" id="Fill-31" fill="#343532"></path>
        <path d="M961.6,244.181 C963.065,245.761 963.798,247.963 963.798,250.785 L963.798,270.204 C963.798,270.581 963.578,270.768 963.142,270.768 L959.796,270.768 C959.358,270.768 959.14,270.581 959.14,270.204 L959.14,251.124 C959.14,249.28 958.681,247.85 957.762,246.834 C956.844,245.818 955.554,245.31 953.893,245.31 C952.143,245.31 950.765,245.856 949.759,246.947 C948.753,248.039 948.251,249.525 948.251,251.406 L948.251,270.204 C948.251,270.581 948.031,270.768 947.595,270.768 L944.25,270.768 C943.812,270.768 943.594,270.581 943.594,270.204 L943.594,242.77 C943.594,242.394 943.812,242.205 944.25,242.205 L947.595,242.205 C948.031,242.205 948.251,242.394 948.251,242.77 L948.251,244.633 L948.382,244.774 L948.579,244.689 C950.196,242.77 952.471,241.81 955.401,241.81 C958.068,241.81 960.135,242.6 961.6,244.181" id="Fill-32" fill="#343532"></path>
        <path d="M976.097,269.047 C974.282,267.711 973.375,265.933 973.375,263.712 L973.375,263.317 C973.375,262.942 973.593,262.753 974.031,262.753 L977.179,262.753 C977.616,262.753 977.835,262.904 977.835,263.204 L977.835,263.656 C977.835,264.861 978.349,265.877 979.377,266.704 C980.404,267.532 981.749,267.946 983.411,267.946 C984.986,267.946 986.253,267.532 987.216,266.704 C988.177,265.877 988.659,264.822 988.659,263.543 C988.659,262.565 988.353,261.746 987.741,261.088 C987.128,260.429 986.417,259.912 985.609,259.535 C984.799,259.159 983.585,258.67 981.968,258.068 C980.263,257.466 978.852,256.873 977.737,256.289 C976.622,255.706 975.66,254.878 974.851,253.805 C974.041,252.733 973.637,251.369 973.637,249.713 C973.637,247.305 974.5,245.404 976.229,244.011 C977.955,242.62 980.284,241.923 983.214,241.923 C986.188,241.923 988.549,242.638 990.299,244.068 C992.048,245.499 992.923,247.398 992.923,249.769 L992.923,249.939 C992.923,250.316 992.704,250.503 992.267,250.503 L989.25,250.503 C988.812,250.503 988.593,250.353 988.593,250.052 L988.593,249.6 C988.593,248.321 988.102,247.267 987.118,246.439 C986.133,245.612 984.854,245.197 983.28,245.197 C981.706,245.197 980.448,245.62 979.508,246.467 C978.567,247.314 978.098,248.358 978.098,249.6 C978.098,250.503 978.382,251.265 978.951,251.886 C979.519,252.507 980.219,253.015 981.05,253.41 C981.88,253.805 983.04,254.285 984.526,254.85 C986.319,255.527 987.795,256.168 988.955,256.769 C990.113,257.371 991.129,258.218 992.005,259.309 C992.879,260.401 993.316,261.756 993.316,263.373 C993.316,265.707 992.42,267.571 990.627,268.962 C988.833,270.355 986.406,271.051 983.346,271.051 C980.329,271.051 977.911,270.383 976.097,269.047" id="Fill-33" fill="#343532"></path>
        <polyline id="Fill-34" fill="#235E9C" points="416.449 182.863 416.449 135.352 399.237 169.895 389.402 169.895 372.19 135.352 372.19 182.863 353.861 182.863 353.861 103.492 373.754 103.492 394.319 144.967 414.995 103.492 434.777 103.492 434.777 182.863 416.449 182.863"></polyline>
        <path d="M498.816,122.943 L489.316,152.456 L507.982,152.456 L498.816,122.943 Z M460.928,182.863 L491.44,103.492 L506.304,103.492 L536.704,182.863 L517.257,182.863 L511.11,165.089 L486.411,165.089 L480.375,182.863 L460.928,182.863 Z" id="Fill-35" fill="#235E9C"></path>
        <polyline id="Fill-36" fill="#235E9C" points="623.208 119.59 599.068 119.59 599.068 182.863 580.738 182.863 580.738 119.59 556.486 119.59 556.486 103.492 623.208 103.492 623.208 119.59"></polyline>
        <polyline id="Fill-37" fill="#235E9C" points="711.5 119.59 687.359 119.59 687.359 182.863 669.03 182.863 669.03 119.59 644.778 119.59 644.778 103.492 711.5 103.492 711.5 119.59"></polyline>
        <polyline id="Fill-38" fill="#235E9C" points="807.616 103.492 807.616 182.863 789.287 182.863 789.287 150.332 757.658 150.332 757.658 182.863 739.329 182.863 739.329 103.492 757.658 103.492 757.658 134.234 789.287 134.234 789.287 103.492 807.616 103.492"></polyline>
        <polyline id="Fill-39" fill="#235E9C" points="897.362 166.765 897.362 182.863 841.592 182.863 841.592 103.492 896.356 103.492 896.356 119.59 859.921 119.59 859.921 135.017 891.215 135.017 891.215 149.884 859.921 149.884 859.921 166.765 897.362 166.765"></polyline>
        <polyline id="Fill-40" fill="#235E9C" points="938.937 103.492 956.037 139.935 973.472 103.492 993.365 103.492 965.201 155.809 965.201 182.863 946.873 182.863 946.873 155.586 919.043 103.492 938.937 103.492"></polyline>
        <path d="M354.119,73.259 C353.913,73.06 353.812,72.82 353.812,72.536 L353.812,15.076 C353.812,14.794 353.913,14.552 354.119,14.353 C354.323,14.156 354.571,14.056 354.865,14.056 L362.938,14.056 C363.229,14.056 363.478,14.156 363.684,14.353 C363.888,14.552 363.991,14.794 363.991,15.076 L363.991,64.632 C363.991,64.916 364.136,65.056 364.43,65.056 L393.825,65.056 C394.117,65.056 394.365,65.156 394.571,65.353 C394.775,65.553 394.878,65.794 394.878,66.076 L394.878,72.536 C394.878,72.82 394.775,73.06 394.571,73.259 C394.365,73.458 394.117,73.556 393.825,73.556 L354.865,73.556 C354.571,73.556 354.323,73.458 354.119,73.259" id="Fill-41" fill="#235E9C"></path>
        <path d="M435.417,55.536 L453.231,55.536 C453.582,55.536 453.698,55.366 453.582,55.026 L444.543,26.551 C444.484,26.325 444.397,26.211 444.28,26.211 C444.163,26.211 444.074,26.325 444.017,26.551 L435.067,55.026 C435.007,55.366 435.125,55.536 435.417,55.536 Z M459.285,72.706 L456.389,63.611 C456.271,63.385 456.126,63.271 455.951,63.271 L432.785,63.271 C432.609,63.271 432.463,63.385 432.347,63.611 L429.451,72.706 C429.275,73.273 428.894,73.556 428.31,73.556 L419.535,73.556 C419.184,73.556 418.921,73.458 418.746,73.259 C418.57,73.06 418.54,72.763 418.658,72.366 L437.699,14.906 C437.875,14.341 438.254,14.056 438.84,14.056 L449.809,14.056 C450.393,14.056 450.773,14.341 450.949,14.906 L470.079,72.366 C470.136,72.48 470.166,72.621 470.166,72.791 C470.166,73.301 469.844,73.556 469.201,73.556 L460.426,73.556 C459.84,73.556 459.461,73.273 459.285,72.706 Z" id="Fill-42" fill="#235E9C"></path>
        <path d="M538.433,14.056 L546.506,14.056 C546.799,14.056 547.046,14.156 547.252,14.353 C547.457,14.552 547.559,14.794 547.559,15.076 L547.559,72.536 C547.559,72.82 547.457,73.06 547.252,73.259 C547.046,73.458 546.799,73.556 546.506,73.556 L538.433,73.556 C538.141,73.556 537.892,73.458 537.688,73.259 C537.482,73.06 537.381,72.82 537.381,72.536 L537.381,31.991 C537.381,31.821 537.307,31.709 537.161,31.651 C537.015,31.595 536.911,31.651 536.854,31.821 L525.885,48.141 C525.592,48.595 525.184,48.821 524.657,48.821 L520.621,48.821 C520.094,48.821 519.684,48.595 519.392,48.141 L508.336,31.906 C508.277,31.736 508.174,31.68 508.028,31.736 C507.882,31.794 507.809,31.906 507.809,32.076 L507.809,72.536 C507.809,72.82 507.707,73.06 507.502,73.259 C507.296,73.458 507.049,73.556 506.756,73.556 L498.683,73.556 C498.391,73.556 498.142,73.458 497.938,73.259 C497.732,73.06 497.631,72.82 497.631,72.536 L497.631,15.076 C497.631,14.794 497.732,14.552 497.938,14.353 C498.142,14.156 498.391,14.056 498.683,14.056 L506.756,14.056 C507.283,14.056 507.692,14.283 507.984,14.736 L522.288,35.731 C522.405,35.845 522.521,35.901 522.639,35.901 C522.755,35.901 522.843,35.845 522.902,35.731 L537.205,14.736 C537.498,14.283 537.907,14.056 538.433,14.056" id="Fill-43" fill="#235E9C"></path>
        <path d="M579.104,73.259 C578.898,73.06 578.798,72.82 578.798,72.536 L578.798,15.076 C578.798,14.794 578.898,14.552 579.104,14.353 C579.309,14.156 579.557,14.056 579.85,14.056 L587.923,14.056 C588.215,14.056 588.463,14.156 588.668,14.353 C588.873,14.552 588.976,14.794 588.976,15.076 L588.976,72.536 C588.976,72.82 588.873,73.06 588.668,73.259 C588.463,73.458 588.215,73.556 587.923,73.556 L579.85,73.556 C579.557,73.556 579.309,73.458 579.104,73.259" id="Fill-44" fill="#235E9C"></path>
        <path d="M656.234,14.353 C656.439,14.156 656.688,14.056 656.98,14.056 L665.053,14.056 C665.346,14.056 665.593,14.156 665.799,14.353 C666.003,14.552 666.106,14.794 666.106,15.076 L666.106,72.536 C666.106,72.82 666.003,73.06 665.799,73.259 C665.593,73.458 665.346,73.556 665.053,73.556 L657.244,73.556 C656.658,73.556 656.248,73.331 656.015,72.876 L630.744,32.757 C630.626,32.586 630.509,32.515 630.393,32.544 C630.275,32.573 630.218,32.7 630.218,32.926 L630.393,72.536 C630.393,72.82 630.29,73.06 630.085,73.259 C629.88,73.458 629.632,73.556 629.34,73.556 L621.267,73.556 C620.974,73.556 620.726,73.458 620.521,73.259 C620.315,73.06 620.214,72.82 620.214,72.536 L620.214,15.076 C620.214,14.794 620.315,14.552 620.521,14.353 C620.726,14.156 620.974,14.056 621.267,14.056 L629.076,14.056 C629.661,14.056 630.071,14.283 630.305,14.736 L655.489,54.856 C655.605,55.026 655.722,55.097 655.84,55.069 C655.957,55.041 656.015,54.913 656.015,54.686 L655.928,15.076 C655.928,14.794 656.029,14.552 656.234,14.353" id="Fill-45" fill="#235E9C"></path>
        <path d="M738.628,22.259 C738.423,22.458 738.175,22.556 737.883,22.556 L707.96,22.556 C707.668,22.556 707.522,22.698 707.522,22.981 L707.522,38.876 C707.522,39.16 707.668,39.301 707.96,39.301 L728.055,39.301 C728.348,39.301 728.595,39.401 728.801,39.598 C729.005,39.798 729.108,40.038 729.108,40.321 L729.108,46.781 C729.108,47.065 729.005,47.305 728.801,47.504 C728.595,47.703 728.348,47.801 728.055,47.801 L707.96,47.801 C707.668,47.801 707.522,47.943 707.522,48.226 L707.522,64.632 C707.522,64.916 707.668,65.056 707.96,65.056 L737.883,65.056 C738.175,65.056 738.423,65.156 738.628,65.353 C738.833,65.553 738.936,65.794 738.936,66.076 L738.936,72.536 C738.936,72.82 738.833,73.06 738.628,73.259 C738.423,73.458 738.175,73.556 737.883,73.556 L698.396,73.556 C698.104,73.556 697.855,73.458 697.65,73.259 C697.445,73.06 697.344,72.82 697.344,72.536 L697.344,15.076 C697.344,14.794 697.445,14.552 697.65,14.353 C697.855,14.156 698.104,14.056 698.396,14.056 L737.883,14.056 C738.175,14.056 738.423,14.156 738.628,14.353 C738.833,14.552 738.936,14.794 738.936,15.076 L738.936,21.536 C738.936,21.82 738.833,22.06 738.628,22.259" id="Fill-46" fill="#235E9C"></path>
        <path d="M777.896,22.981 L777.896,39.896 C777.896,40.18 778.042,40.321 778.334,40.321 L791.497,40.321 C794.305,40.321 796.571,39.513 798.298,37.898 C800.022,36.284 800.886,34.145 800.886,31.481 C800.886,28.818 800.022,26.666 798.298,25.021 C796.571,23.379 794.305,22.556 791.497,22.556 L778.334,22.556 C778.042,22.556 777.896,22.698 777.896,22.981 Z M800.974,72.791 L789.391,48.311 C789.273,48.086 789.098,47.971 788.864,47.971 L778.334,47.971 C778.042,47.971 777.896,48.113 777.896,48.396 L777.896,72.536 C777.896,72.82 777.793,73.06 777.589,73.259 C777.383,73.458 777.136,73.556 776.843,73.556 L768.77,73.556 C768.478,73.556 768.229,73.458 768.024,73.259 C767.818,73.06 767.718,72.82 767.718,72.536 L767.718,15.076 C767.718,14.794 767.818,14.552 768.024,14.353 C768.229,14.156 768.478,14.056 768.77,14.056 L792.901,14.056 C796.468,14.056 799.628,14.779 802.378,16.223 C805.126,17.669 807.261,19.709 808.783,22.344 C810.304,24.978 811.065,27.996 811.065,31.396 C811.065,35.306 810.025,38.635 807.95,41.384 C805.873,44.133 802.992,46.046 799.307,47.121 C799.188,47.121 799.101,47.178 799.043,47.291 C798.985,47.405 798.985,47.518 799.043,47.632 L811.416,72.366 C811.533,72.594 811.591,72.763 811.591,72.876 C811.591,73.331 811.27,73.556 810.626,73.556 L802.202,73.556 C801.617,73.556 801.207,73.301 800.974,72.791 Z" id="Fill-47" fill="#235E9C"></path>
        <path d="M840.24,73.259 C840.035,73.06 839.934,72.82 839.934,72.536 L839.934,15.076 C839.934,14.794 840.035,14.552 840.24,14.353 C840.445,14.156 840.693,14.056 840.986,14.056 L849.059,14.056 C849.352,14.056 849.599,14.156 849.805,14.353 C850.009,14.552 850.112,14.794 850.112,15.076 L850.112,72.536 C850.112,72.82 850.009,73.06 849.805,73.259 C849.599,73.458 849.352,73.556 849.059,73.556 L840.986,73.556 C840.693,73.556 840.445,73.458 840.24,73.259" id="Fill-48" fill="#235E9C"></path>
        <path d="M922.635,22.259 C922.43,22.458 922.182,22.556 921.889,22.556 L891.967,22.556 C891.675,22.556 891.529,22.698 891.529,22.981 L891.529,38.876 C891.529,39.16 891.675,39.301 891.967,39.301 L912.062,39.301 C912.354,39.301 912.602,39.401 912.807,39.598 C913.012,39.798 913.115,40.038 913.115,40.321 L913.115,46.781 C913.115,47.065 913.012,47.305 912.807,47.504 C912.602,47.703 912.354,47.801 912.062,47.801 L891.967,47.801 C891.675,47.801 891.529,47.943 891.529,48.226 L891.529,64.632 C891.529,64.916 891.675,65.056 891.967,65.056 L921.889,65.056 C922.182,65.056 922.43,65.156 922.635,65.353 C922.84,65.553 922.942,65.794 922.942,66.076 L922.942,72.536 C922.942,72.82 922.84,73.06 922.635,73.259 C922.43,73.458 922.182,73.556 921.889,73.556 L882.403,73.556 C882.11,73.556 881.861,73.458 881.657,73.259 C881.451,73.06 881.351,72.82 881.351,72.536 L881.351,15.076 C881.351,14.794 881.451,14.552 881.657,14.353 C881.861,14.156 882.11,14.056 882.403,14.056 L921.889,14.056 C922.182,14.056 922.43,14.156 922.635,14.353 C922.84,14.552 922.942,14.794 922.942,15.076 L922.942,21.536 C922.942,21.82 922.84,22.06 922.635,22.259" id="Fill-49" fill="#235E9C"></path>
        <path d="M959.621,72.111 C956.228,70.695 953.61,68.711 951.768,66.161 C949.925,63.611 949.003,60.608 949.003,57.151 L949.003,55.026 C949.003,54.743 949.105,54.503 949.311,54.303 C949.515,54.106 949.763,54.007 950.057,54.007 L957.866,54.007 C958.158,54.007 958.406,54.106 958.612,54.303 C958.816,54.503 958.919,54.743 958.919,55.026 L958.919,56.641 C958.919,59.248 960.117,61.416 962.517,63.143 C964.916,64.873 968.19,65.736 972.345,65.736 C975.912,65.736 978.604,65.001 980.417,63.526 C982.23,62.053 983.138,60.155 983.138,57.831 C983.138,56.246 982.64,54.898 981.646,53.794 C980.651,52.688 979.233,51.683 977.391,50.776 C975.548,49.871 972.784,48.736 969.098,47.376 C964.944,45.903 961.581,44.515 959.007,43.211 C956.432,41.908 954.282,40.137 952.557,37.898 C950.832,35.661 949.969,32.871 949.969,29.526 C949.969,24.541 951.841,20.601 955.584,17.711 C959.328,14.821 964.329,13.376 970.59,13.376 C974.977,13.376 978.852,14.113 982.216,15.586 C985.579,17.06 988.197,19.114 990.07,21.749 C991.941,24.383 992.878,27.43 992.878,30.886 L992.878,32.331 C992.878,32.615 992.775,32.856 992.571,33.053 C992.365,33.253 992.117,33.351 991.825,33.351 L983.928,33.351 C983.634,33.351 983.386,33.253 983.181,33.053 C982.976,32.856 982.875,32.615 982.875,32.331 L982.875,31.396 C982.875,28.733 981.747,26.481 979.496,24.638 C977.244,22.798 974.128,21.876 970.151,21.876 C966.934,21.876 964.433,22.528 962.648,23.831 C960.863,25.135 959.973,26.976 959.973,29.356 C959.973,31.056 960.439,32.445 961.376,33.521 C962.312,34.598 963.715,35.576 965.588,36.454 C967.46,37.333 970.355,38.451 974.275,39.811 C978.428,41.342 981.747,42.73 984.234,43.976 C986.72,45.223 988.855,46.966 990.641,49.204 C992.424,51.443 993.316,54.233 993.316,57.576 C993.316,62.677 991.371,66.728 987.481,69.731 C983.59,72.735 978.281,74.236 971.555,74.236 C966.992,74.236 963.014,73.528 959.621,72.111" id="Fill-50" fill="#235E9C"></path>
        <path d="M166.117,47.995 C166.117,73.016 145.839,93.294 120.819,93.294 C95.805,93.294 75.521,73.016 75.521,47.995 C75.521,22.975 95.805,2.697 120.819,2.697 C145.839,2.697 166.117,22.975 166.117,47.995 Z M170.239,51.301 C170.239,23.124 147.398,0.28 119.215,0.28 C91.04,0.28 68.192,23.124 68.192,51.301 C68.192,79.485 91.04,102.328 119.215,102.328 C147.398,102.328 170.239,79.485 170.239,51.301 Z" id="Fill-51" fill="#D8242E"></path>
        <g id="Group-55" transform="translate(0.000000, 101.000000)">
            <mask id="mask-4" fill="white">
                <use xlink:href="#path-3"></use>
            </mask>
            <g id="Clip-53"></g>
            <path d="M120.819,112.337 C95.805,112.337 75.521,92.059 75.521,67.039 C75.521,42.019 95.805,21.741 120.819,21.741 C145.839,21.741 166.117,42.019 166.117,67.039 C166.117,92.059 145.839,112.337 120.819,112.337 Z M119.215,12.706 C91.04,12.706 68.192,35.55 68.192,63.733 C68.192,91.911 91.04,114.755 119.215,114.755 C147.398,114.755 170.239,91.911 170.239,63.733 C170.239,35.55 147.398,12.706 119.215,12.706 Z" id="Fill-52" fill="#D8242E" mask="url(#mask-4)"></path>
            <path d="M118.598,9.221 C111.442,9.221 103.411,10.635 97.162,13.206 L0,13.206 L0,0.829 L97.162,0.829 C103.411,3.4 111.442,4.814 118.598,4.814 L314.799,4.814 L314.799,9.221 L118.598,9.221" id="Fill-54" fill="#A0A19D" mask="url(#mask-4)"></path>
        </g>
    </g>
</svg>